<?xml version="1.0" encoding="UTF-8" standalone="no"?>
<svg
   xmlns:dc="http://purl.org/dc/elements/1.1/"
   xmlns:cc="http://creativecommons.org/ns#"
   xmlns:rdf="http://www.w3.org/1999/02/22-rdf-syntax-ns#"
   xmlns:svg="http://www.w3.org/2000/svg"
   xmlns="http://www.w3.org/2000/svg"
   xmlns:sodipodi="http://sodipodi.sourceforge.net/DTD/sodipodi-0.dtd"
   xmlns:inkscape="http://www.inkscape.org/namespaces/inkscape"
   width="256"
   height="256"
   viewBox="0 0 67.733331 67.733331"
   version="1.1"
   id="svg9093"
   inkscape:version="1.0.2 (1.0.2+r75+1)"
   sodipodi:docname="warning.svg"
   inkscape:export-filename="warning.png"
   inkscape:export-xdpi="24.000002"
   inkscape:export-ydpi="24.000002">
  <defs
     id="defs9087" />
  <sodipodi:namedview
     id="base"
     pagecolor="#ffffff"
     bordercolor="#666666"
     borderopacity="1.0"
     inkscape:pageopacity="0.0"
     inkscape:pageshadow="2"
     inkscape:zoom="3.793553"
     inkscape:cx="137.28164"
     inkscape:cy="164.28598"
     inkscape:document-units="mm"
     inkscape:current-layer="layer1"
     showgrid="false"
     inkscape:window-width="2560"
     inkscape:window-height="1341"
     inkscape:window-x="0"
     inkscape:window-y="35"
     inkscape:window-maximized="1"
     inkscape:document-rotation="0"
     units="px">
    <inkscape:grid
       type="xygrid"
       id="grid1020"
       spacingx="1.3229166"
       spacingy="1.3229166" />
  </sodipodi:namedview>
  <metadata
     id="metadata9090">
    <rdf:RDF>
      <cc:Work
         rdf:about="">
        <dc:format>image/svg+xml</dc:format>
        <dc:type
           rdf:resource="http://purl.org/dc/dcmitype/StillImage" />
        <dc:title />
      </cc:Work>
    </rdf:RDF>
  </metadata>
  <g
     inkscape:label="Ebene 1"
     inkscape:groupmode="layer"
     id="layer1"
     transform="translate(0,-223)">
    <g
       id="g1087"
       transform="translate(0,10)">
      <path
         style="fill:#d3bc5f;stroke:#000000;stroke-width:2.5;stroke-linecap:butt;stroke-linejoin:miter;stroke-miterlimit:4;stroke-dasharray:none;stroke-opacity:1"
         d="m 15.874999,244.45833 c 6.614583,-1.32291 29.104165,-2.64584 37.041665,0 7.9375,2.64584 10.583333,9.26042 10.583333,13.22917 0,3.96875 -3.96875,13.22916 -10.674269,13.45543 -7.175601,0.24213 -29.013229,1.09665 -36.950729,-0.22627 -7.9374998,-1.32292 -13.2291658,-6.61457 -13.2291658,-13.22916 0,-6.61458 6.6145826,-11.90626 13.2291658,-13.22917 z"
         id="path1040"
         sodipodi:nodetypes="zzzszzz" />
      <g
         id="g1074"
         transform="translate(-32.811584,72.730398)">
        <circle
           style="fill:#ffffff;fill-opacity:1;stroke:#000000;stroke-width:2.5;stroke-linecap:round;stroke-linejoin:round;stroke-miterlimit:4;stroke-dasharray:none;stroke-opacity:1"
           id="path1042"
           cx="83.829292"
           cy="180.42665"
           r="7.8701148" />
        <circle
           style="fill:#000000;fill-opacity:1;stroke:none;stroke-width:1.4472;stroke-linecap:round;stroke-linejoin:round;stroke-miterlimit:4;stroke-dasharray:none;stroke-opacity:1"
           id="path1042-2"
           cx="83.891472"
           cy="180.4841"
           r="2.8719943" />
      </g>
    </g>
    <circle
       style="fill:#000000;fill-opacity:1;stroke:none;stroke-width:1.24796;stroke-linecap:round;stroke-linejoin:round;stroke-miterlimit:4;stroke-dasharray:none;stroke-opacity:1"
       id="path1042-2-9"
       cx="53.570587"
       cy="276.0527"
       r="2.4765942" />
    <g
       id="g1146">
      <g
         id="g1098"
         transform="matrix(1.3263067,0.3712647,-0.3712647,1.3263067,-25.48225,-93.118929)">
        <path
           sodipodi:type="star"
           style="fill:#ff6500;fill-opacity:1;stroke:#000000;stroke-width:1.81516;stroke-linecap:round;stroke-linejoin:round;stroke-miterlimit:4;stroke-dasharray:none;stroke-opacity:1"
           id="path1089"
           sodipodi:sides="8"
           sodipodi:cx="99.218742"
           sodipodi:cy="228.29167"
           sodipodi:r1="14.34167"
           sodipodi:r2="15.257096"
           sodipodi:arg1="0.9032256"
           sodipodi:arg2="1.2959247"
           inkscape:flatsided="false"
           inkscape:rounded="0.14"
           inkscape:randomized="0"
           d="m 108.09738,239.55459 c -0.6425,0.50649 -3.95008,3.19937 -4.7375,3.42143 -0.78743,0.22206 -5.014611,-0.34594 -5.827072,-0.44212 -0.812462,-0.0962 -5.055431,-0.53083 -5.769243,-0.9306 -0.713812,-0.39978 -3.301246,-3.79048 -3.807736,-4.43299 -0.506491,-0.6425 -3.199371,-3.95008 -3.421432,-4.73751 -0.222061,-0.78742 0.345939,-5.0146 0.442115,-5.82706 0.09618,-0.81246 0.530837,-5.05543 0.930607,-5.76925 0.39977,-0.71381 3.790478,-3.30124 4.432982,-3.80773 0.642503,-0.50649 3.950087,-3.19937 4.737509,-3.42143 0.787421,-0.22206 5.01461,0.34594 5.82707,0.44211 0.81246,0.0962 5.05543,0.53084 5.76924,0.93061 0.71381,0.39977 3.30125,3.79048 3.80774,4.43298 0.50649,0.6425 3.19937,3.95009 3.42143,4.73751 0.22206,0.78742 -0.34594,5.01461 -0.44212,5.82707 -0.0962,0.81246 -0.53083,5.05543 -0.9306,5.76924 -0.39977,0.71381 -3.79048,3.30124 -4.43299,3.80774 z"
           inkscape:transform-center-x="1.0802602"
           inkscape:transform-center-y="-1.9451047"
           transform="rotate(-22.22582,100.26123,228.61971)" />
      </g>
      <text
         xml:space="preserve"
         style="font-size:17.1566px;line-height:1.25;font-family:'Politics Head';-inkscape-font-specification:'Politics Head';letter-spacing:0px;word-spacing:0px;fill:#ffffff;stroke-width:0.321687"
         x="3.7861662"
         y="232.46759"
         id="text1140"
         transform="scale(0.91956341,1.0874726)"><tspan
           sodipodi:role="line"
           id="tspan1138"
           x="3.7861662"
           y="232.46759"
           style="fill:#ffffff;stroke-width:0.321687">STOP</tspan></text>
    </g>
  </g>
</svg>
